<svg width="25" height="25" viewBox="0 0 25 25" fill="none" xmlns="http://www.w3.org/2000/svg">
<path d="M18.5499 0.9375C16.4217 0.9375 14.1297 1.51425 12.5472 3.10031C10.9647 1.51425 8.67272 0.9375 6.54448 0.9375C4.96194 0.9375 3.28117 1.25471 1.87326 2.07658C1.07654 2.5524 0.541748 3.57613 0.541748 4.74405V21.0084C0.541748 22.8828 1.87326 24.267 3.24843 23.8056C4.31801 23.4452 5.45307 23.2866 6.54448 23.2866C8.24707 23.2866 10.0588 23.6614 11.5213 24.6131C12.1761 25.0456 12.9183 25.0456 13.5622 24.6131C15.0247 23.647 16.8364 23.2866 18.539 23.2866C19.6304 23.2866 20.7655 23.4452 21.8351 23.8056C23.2102 24.2814 24.5417 22.8972 24.5417 21.0084V4.74405C24.5417 3.57613 24.007 2.5524 23.2102 2.07658C21.8132 1.25471 20.1325 0.9375 18.5499 0.9375ZM22.3699 19.2926C22.3699 20.2009 21.7368 20.8642 21.0602 20.7056C20.2416 20.5037 19.3903 20.4172 18.5499 20.4172C16.6945 20.4172 14.0206 21.3544 12.5472 22.58V5.98406C14.0206 4.75847 16.6945 3.82125 18.5499 3.82125C19.554 3.82125 20.5472 3.95102 21.4967 4.22497C21.9988 4.36916 22.3699 4.96033 22.3699 5.63801V19.2926Z" fill="#A2F0CB"/>
<path d="M14.7081 10.3241C14.3589 10.3241 14.0424 10.0357 13.9332 9.57429C13.7913 9.01196 14.0314 8.39195 14.4571 8.21893C16.1379 7.49799 18.3098 7.26729 20.307 7.57008C20.7545 7.64218 21.0819 8.17567 21.0274 8.76684C20.9728 9.35801 20.569 9.79057 20.1215 9.71848C18.3534 9.44452 16.4216 9.6608 14.9591 10.2808C14.8718 10.2952 14.7845 10.3241 14.7081 10.3241Z" fill="#A2F0CB"/>
<path d="M14.7081 14.1595C14.3589 14.1595 14.0424 13.8711 13.9332 13.4097C13.7913 12.8474 14.0314 12.2274 14.4571 12.0544C16.1269 11.3334 18.3098 11.1027 20.307 11.4055C20.7545 11.4776 21.0819 12.0111 21.0274 12.6023C20.9728 13.1935 20.569 13.626 20.1215 13.5539C18.3534 13.28 16.4216 13.4963 14.9591 14.1163C14.8718 14.1451 14.7845 14.1595 14.7081 14.1595Z" fill="#A2F0CB"/>
<path d="M14.7081 17.995C14.3589 17.995 14.0424 17.7066 13.9332 17.2452C13.7913 16.6829 14.0314 16.0629 14.4571 15.8898C16.1269 15.1689 18.3098 14.9382 20.307 15.241C20.7545 15.3131 21.0819 15.8466 21.0274 16.4377C20.9728 17.0289 20.569 17.447 20.1215 17.3894C18.3534 17.1154 16.4216 17.3317 14.9591 17.9517C14.8718 17.9805 14.7845 17.995 14.7081 17.995Z" fill="#A2F0CB"/>
</svg>
