<svg width="24" height="24" viewBox="0 0 24 24" fill="none" xmlns="http://www.w3.org/2000/svg">
<g clip-path="url(#clip0_15_182)">
<path d="M8.80681 17.1885C9.0208 16.6305 8.88323 15.995 8.45526 15.561L5.26073 12.368L5.30659 12.3215C7.96614 9.3145 9.86146 5.858 10.9773 2.2H13.9425C14.7679 2.2 15.4557 1.5025 15.4557 0.6655V0.6345C15.4557 -0.202501 14.7679 -0.9 13.9425 -0.9H4.75633V-2.45C4.75633 -3.3025 4.06852 -4 3.22785 -4C2.38719 -4 1.69937 -3.3025 1.69937 -2.45V-0.9H-7.4868C-8.31218 -0.9 -9 -0.202501 -9 0.6345C-9 1.487 -8.31218 2.169 -7.4868 2.169H8.07314C7.04906 5.176 5.42887 8.0125 3.22785 10.4925C1.98978 9.113 0.950415 7.6095 0.0791798 6.0285C-0.165377 5.579 -0.608637 5.3 -1.11304 5.3C-2.16769 5.3 -2.84022 6.4625 -2.32054 7.3925C-1.35759 9.144 -0.180662 10.818 1.19497 12.368L-5.48449 19.0485C-6.09589 19.653 -6.09589 20.645 -5.48449 21.2495C-4.88838 21.854 -3.92544 21.854 -3.31405 21.2495L3.22785 14.6L6.31538 17.731C7.09491 18.5215 8.42469 18.227 8.80681 17.1885ZM16.2199 8.4C15.3029 8.4 14.4775 8.9735 14.1565 9.857L8.54697 25.047C8.18013 25.9925 8.88323 27 9.87675 27C10.4729 27 11.0078 26.628 11.2218 26.0545L12.5822 22.35H19.8424L21.2181 26.0545C21.4321 26.6125 21.967 27 22.5631 27C23.5567 27 24.2598 25.9925 23.9082 25.047L18.2987 9.857C17.9624 8.9735 17.137 8.4 16.2199 8.4ZM13.7438 19.25L16.2199 12.5385L18.6961 19.25H13.7438Z" fill="#A2F0CB"/>
</g>
<defs>
<clipPath id="clip0_15_182">
<rect width="24" height="24" fill="white"/>
</clipPath>
</defs>
</svg>
