<svg width="238" height="96" viewBox="0 0 238 96" fill="none" xmlns="http://www.w3.org/2000/svg">
<path d="M3.024 47V13.4H11.952L21.168 31.544L30.384 13.4H39.312V47H32.736V22.28L21.072 44.6L9.456 22.184V47H3.024ZM44.9201 47V21.992H51.4961V47H44.9201ZM48.1841 19.016C47.1601 19.016 46.2801 18.648 45.5441 17.912C44.8081 17.176 44.4401 16.296 44.4401 15.272C44.4401 14.216 44.8081 13.336 45.5441 12.632C46.2801 11.896 47.1601 11.528 48.1841 11.528C49.2401 11.528 50.1201 11.896 50.8241 12.632C51.5601 13.336 51.9281 14.216 51.9281 15.272C51.9281 16.296 51.5601 17.176 50.8241 17.912C50.1201 18.648 49.2401 19.016 48.1841 19.016ZM68.5909 47.48C66.1269 47.48 63.9029 46.92 61.9189 45.8C59.9349 44.648 58.3669 43.096 57.2149 41.144C56.0629 39.16 55.4869 36.952 55.4869 34.52C55.4869 32.056 56.0629 29.848 57.2149 27.896C58.3669 25.944 59.9349 24.392 61.9189 23.24C63.9029 22.088 66.1269 21.512 68.5909 21.512C70.5749 21.512 72.4629 21.896 74.2549 22.664C76.0789 23.432 77.6469 24.536 78.9589 25.976L74.9269 30.248C73.9989 29.224 73.0229 28.472 71.9989 27.992C71.0069 27.48 69.9189 27.224 68.7349 27.224C67.4549 27.224 66.3029 27.544 65.2789 28.184C64.2869 28.824 63.4869 29.688 62.8789 30.776C62.3029 31.864 62.0149 33.112 62.0149 34.52C62.0149 35.864 62.3029 37.096 62.8789 38.216C63.4869 39.304 64.3189 40.168 65.3749 40.808C66.4309 41.416 67.5989 41.72 68.8789 41.72C69.9989 41.72 71.0389 41.496 71.9989 41.048C72.9909 40.568 73.9349 39.864 74.8309 38.936L78.7669 43.064C77.4869 44.44 75.9509 45.528 74.1589 46.328C72.3669 47.096 70.5109 47.48 68.5909 47.48ZM82.1858 47V13.4L88.7618 11.96V24.056C90.6498 22.36 92.9858 21.512 95.7698 21.512C97.7218 21.512 99.4338 21.944 100.906 22.808C102.41 23.64 103.578 24.808 104.41 26.312C105.242 27.784 105.658 29.512 105.658 31.496V47H99.0818V32.456C99.0818 30.824 98.6178 29.544 97.6898 28.616C96.7618 27.656 95.4978 27.176 93.8978 27.176C92.7778 27.176 91.7858 27.4 90.9218 27.848C90.0578 28.264 89.3378 28.872 88.7618 29.672V47H82.1858ZM118.607 47.432C116.815 47.432 115.231 47.112 113.855 46.472C112.479 45.8 111.407 44.888 110.639 43.736C109.871 42.584 109.487 41.256 109.487 39.752C109.487 37.352 110.383 35.496 112.175 34.184C113.999 32.84 116.495 32.168 119.663 32.168C121.839 32.168 123.887 32.504 125.807 33.176V31.352C125.807 29.912 125.359 28.824 124.463 28.088C123.567 27.352 122.255 26.984 120.527 26.984C119.471 26.984 118.335 27.16 117.119 27.512C115.903 27.832 114.495 28.344 112.895 29.048L110.495 24.2C112.479 23.304 114.367 22.632 116.159 22.184C117.983 21.736 119.807 21.512 121.631 21.512C124.991 21.512 127.599 22.328 129.455 23.96C131.343 25.56 132.287 27.832 132.287 30.776V47H125.807V45.224C124.783 45.992 123.679 46.552 122.495 46.904C121.311 47.256 120.015 47.432 118.607 47.432ZM115.727 39.608C115.727 40.568 116.143 41.336 116.975 41.912C117.807 42.456 118.911 42.728 120.287 42.728C121.375 42.728 122.383 42.6 123.311 42.344C124.239 42.056 125.071 41.64 125.807 41.096V37.448C125.007 37.128 124.175 36.888 123.311 36.728C122.447 36.568 121.519 36.488 120.527 36.488C119.023 36.488 117.839 36.776 116.975 37.352C116.143 37.896 115.727 38.648 115.727 39.608ZM149.504 47.48C147.008 47.48 144.736 46.904 142.688 45.752C140.672 44.6 139.072 43.048 137.888 41.096C136.704 39.144 136.112 36.952 136.112 34.52C136.112 32.088 136.672 29.896 137.792 27.944C138.944 25.992 140.496 24.44 142.448 23.288C144.4 22.136 146.576 21.56 148.976 21.56C151.376 21.56 153.504 22.152 155.36 23.336C157.216 24.52 158.672 26.12 159.728 28.136C160.816 30.152 161.36 32.44 161.36 35V36.728H142.832C143.12 37.72 143.584 38.616 144.224 39.416C144.896 40.216 145.712 40.84 146.672 41.288C147.664 41.736 148.72 41.96 149.84 41.96C150.96 41.96 151.984 41.784 152.912 41.432C153.872 41.08 154.688 40.584 155.36 39.944L159.68 43.88C158.144 45.128 156.56 46.04 154.928 46.616C153.328 47.192 151.52 47.48 149.504 47.48ZM142.736 32.024H154.88C154.656 31.032 154.24 30.168 153.632 29.432C153.056 28.664 152.352 28.072 151.52 27.656C150.72 27.208 149.824 26.984 148.832 26.984C147.808 26.984 146.88 27.192 146.048 27.608C145.216 28.024 144.512 28.616 143.936 29.384C143.392 30.12 142.992 31 142.736 32.024ZM165.389 47V13.4L171.965 12.296V47H165.389Z" fill="white"/>
<path d="M46.984 76.808H52.84C54.344 76.808 55.736 76.552 57.016 76.04C58.328 75.496 59.464 74.744 60.424 73.784C61.416 72.824 62.168 71.704 62.68 70.424C63.224 69.144 63.496 67.752 63.496 66.248C63.496 64.744 63.224 63.352 62.68 62.072C62.136 60.76 61.384 59.624 60.424 58.664C59.464 57.704 58.328 56.952 57.016 56.408C55.736 55.864 54.344 55.592 52.84 55.592H46.984V76.808ZM40.024 83V49.4H52.936C55.464 49.4 57.8 49.832 59.944 50.696C62.088 51.528 63.96 52.712 65.56 54.248C67.16 55.784 68.408 57.576 69.304 59.624C70.232 61.672 70.696 63.88 70.696 66.248C70.696 68.648 70.248 70.856 69.352 72.872C68.456 74.888 67.192 76.664 65.56 78.2C63.96 79.704 62.088 80.888 59.944 81.752C57.8 82.584 55.464 83 52.936 83H40.024ZM87.2215 83.48C84.7255 83.48 82.4695 82.904 80.4535 81.752C78.4375 80.6 76.8375 79.048 75.6535 77.096C74.4695 75.144 73.8775 72.952 73.8775 70.52C73.8775 68.088 74.4535 65.896 75.6055 63.944C76.7895 61.96 78.3895 60.392 80.4055 59.24C82.4535 58.088 84.7255 57.512 87.2215 57.512C89.7175 57.512 91.9735 58.088 93.9895 59.24C96.0375 60.392 97.6375 61.96 98.7895 63.944C99.9735 65.896 100.566 68.088 100.566 70.52C100.566 72.952 99.9735 75.144 98.7895 77.096C97.6375 79.048 96.0535 80.6 94.0375 81.752C92.0215 82.904 89.7495 83.48 87.2215 83.48ZM87.2215 77.768C88.5335 77.768 89.7015 77.448 90.7255 76.808C91.7815 76.168 92.6135 75.304 93.2215 74.216C93.8615 73.096 94.1815 71.864 94.1815 70.52C94.1815 69.144 93.8615 67.912 93.2215 66.824C92.6135 65.736 91.7815 64.872 90.7255 64.232C89.7015 63.56 88.5335 63.224 87.2215 63.224C85.9415 63.224 84.7735 63.56 83.7175 64.232C82.6615 64.872 81.8295 65.736 81.2215 66.824C80.6135 67.912 80.3095 69.144 80.3095 70.52C80.3095 71.864 80.6135 73.096 81.2215 74.216C81.8295 75.304 82.6615 76.168 83.7175 76.808C84.7735 77.448 85.9415 77.768 87.2215 77.768ZM114.304 83.48C112.384 83.48 110.672 83.064 109.168 82.232C107.696 81.368 106.528 80.184 105.664 78.68C104.832 77.176 104.416 75.448 104.416 73.496V57.992H110.992V72.536C110.992 74.136 111.456 75.416 112.384 76.376C113.344 77.336 114.624 77.816 116.224 77.816C117.312 77.816 118.288 77.608 119.152 77.192C120.048 76.744 120.784 76.12 121.36 75.32V57.992H127.936V83H121.36V80.984C119.44 82.648 117.088 83.48 114.304 83.48ZM145.637 93.272C143.717 93.272 141.861 93.064 140.069 92.648C138.277 92.264 136.661 91.704 135.221 90.968L137.525 85.88C138.901 86.552 140.245 87.048 141.557 87.368C142.869 87.688 144.181 87.848 145.493 87.848C147.445 87.848 148.917 87.432 149.909 86.6C150.933 85.768 151.445 84.52 151.445 82.856V80.888C149.397 82.392 147.109 83.144 144.581 83.144C142.213 83.144 140.069 82.584 138.149 81.464C136.261 80.312 134.741 78.76 133.589 76.808C132.469 74.856 131.909 72.696 131.909 70.328C131.909 67.96 132.469 65.816 133.589 63.896C134.741 61.976 136.293 60.456 138.245 59.336C140.197 58.184 142.373 57.608 144.773 57.608C145.989 57.608 147.173 57.784 148.325 58.136C149.477 58.488 150.549 58.984 151.541 59.624V57.992H158.021V82.952C158.021 86.248 156.949 88.792 154.805 90.584C152.693 92.376 149.637 93.272 145.637 93.272ZM145.589 77.576C146.805 77.576 147.909 77.384 148.901 77C149.893 76.584 150.741 76.008 151.445 75.272V65.48C150.741 64.776 149.877 64.232 148.853 63.848C147.861 63.432 146.789 63.224 145.637 63.224C144.261 63.224 143.029 63.544 141.941 64.184C140.853 64.792 139.989 65.64 139.349 66.728C138.709 67.784 138.389 68.984 138.389 70.328C138.389 71.704 138.693 72.936 139.301 74.024C139.941 75.112 140.805 75.976 141.893 76.616C143.013 77.256 144.245 77.576 145.589 77.576ZM163.155 83V49.4L169.731 48.296V83H163.155ZM182.841 83.432C181.049 83.432 179.465 83.112 178.089 82.472C176.713 81.8 175.641 80.888 174.873 79.736C174.105 78.584 173.721 77.256 173.721 75.752C173.721 73.352 174.617 71.496 176.409 70.184C178.233 68.84 180.729 68.168 183.897 68.168C186.073 68.168 188.121 68.504 190.041 69.176V67.352C190.041 65.912 189.593 64.824 188.697 64.088C187.801 63.352 186.489 62.984 184.761 62.984C183.705 62.984 182.569 63.16 181.353 63.512C180.137 63.832 178.729 64.344 177.129 65.048L174.729 60.2C176.713 59.304 178.601 58.632 180.393 58.184C182.217 57.736 184.041 57.512 185.865 57.512C189.225 57.512 191.833 58.328 193.689 59.96C195.577 61.56 196.521 63.832 196.521 66.776V83H190.041V81.224C189.017 81.992 187.913 82.552 186.729 82.904C185.545 83.256 184.249 83.432 182.841 83.432ZM179.961 75.608C179.961 76.568 180.377 77.336 181.209 77.912C182.041 78.456 183.145 78.728 184.521 78.728C185.609 78.728 186.617 78.6 187.545 78.344C188.473 78.056 189.305 77.64 190.041 77.096V73.448C189.241 73.128 188.409 72.888 187.545 72.728C186.681 72.568 185.753 72.488 184.761 72.488C183.257 72.488 182.073 72.776 181.209 73.352C180.377 73.896 179.961 74.648 179.961 75.608ZM210.858 83.48C208.554 83.48 206.426 83.192 204.474 82.616C202.522 82.008 200.826 81.144 199.386 80.024L202.65 75.656C204.09 76.616 205.466 77.336 206.778 77.816C208.122 78.296 209.45 78.536 210.762 78.536C212.234 78.536 213.402 78.296 214.266 77.816C215.162 77.304 215.61 76.648 215.61 75.848C215.61 75.208 215.354 74.696 214.842 74.312C214.362 73.928 213.578 73.656 212.49 73.496L207.69 72.776C205.194 72.392 203.306 71.592 202.026 70.376C200.746 69.128 200.106 67.496 200.106 65.48C200.106 63.848 200.522 62.456 201.354 61.304C202.218 60.12 203.418 59.208 204.954 58.568C206.522 57.896 208.378 57.56 210.522 57.56C212.346 57.56 214.122 57.816 215.85 58.328C217.61 58.84 219.258 59.624 220.794 60.68L217.626 64.952C216.25 64.088 214.938 63.464 213.69 63.08C212.442 62.696 211.178 62.504 209.898 62.504C208.714 62.504 207.754 62.728 207.018 63.176C206.314 63.624 205.962 64.216 205.962 64.952C205.962 65.624 206.218 66.152 206.73 66.536C207.242 66.92 208.122 67.192 209.37 67.352L214.122 68.072C216.618 68.424 218.522 69.224 219.834 70.472C221.146 71.688 221.802 73.272 221.802 75.224C221.802 76.824 221.322 78.248 220.362 79.496C219.402 80.712 218.106 81.688 216.474 82.424C214.842 83.128 212.97 83.48 210.858 83.48Z" fill="white"/>
</svg>
